<?xml version="1.0" encoding="utf-8"?>
<svg version="1.1" xmlns:xlink="http://www.w3.org/1999/xlink" width="28px" height="34px" xmlns="http://www.w3.org/2000/svg">
  <defs>
    <filter x="56px" y="93px" width="28px" height="34px" filterUnits="userSpaceOnUse" id="filter14">
      <feOffset dx="1" dy="1" in="SourceAlpha" result="shadowOffsetInner" />
      <feGaussianBlur stdDeviation="2.5" in="shadowOffsetInner" result="shadowGaussian" />
      <feComposite in2="shadowGaussian" operator="atop" in="SourceAlpha" result="shadowComposite" />
      <feColorMatrix type="matrix" values="0 0 0 0 0  0 0 0 0 0  0 0 0 0 0  0 0 0 0.698039215686274 0  " in="shadowComposite" />
    </filter>
    <g id="widget15">
      <path d="M 69 120.036928468354  C 65.6 114.40734059591  60.5 111.029587872444  60.5 105.4  C 60.5 102.465714285714  62.2 97.5  69 97.5  C 75.8 97.5  77.5 102.465714285714  77.5 105.4  C 77.5 111.029587872444  72.4 114.40734059591  69 120.036928468354  Z " fill-rule="nonzero" fill="#009dd9" stroke="none" />
      <path d="M 69 121  C 65.4 115  60 111.4  60 105.4  C 60 102.28  61.8 97  69 97  C 76.2 97  78 102.28  78 105.4  C 78 111.4  72.6 115  69 121  Z M 69 119.073856936707  C 72.2 113.81468119182  77 110.659175744887  77 105.4  C 77 102.651428571429  75.4 98  69 98  C 62.6 98  61 102.651428571429  61 105.4  C 61 110.659175744887  65.8 113.81468119182  69 119.073856936707  Z " fill-rule="nonzero" fill="#ffffff" stroke="none" />
    </g>
  </defs>
  <g transform="matrix(1 0 0 1 -56 -93 )">
    <use xlink:href="#widget15" filter="url(#filter14)" />
    <use xlink:href="#widget15" />
  </g>
</svg>