<?xml version="1.0" encoding="utf-8"?>
<svg version="1.1" xmlns:xlink="http://www.w3.org/1999/xlink" width="23px" height="23px" xmlns="http://www.w3.org/2000/svg">
  <defs>
    <filter x="61px" y="285px" width="23px" height="23px" filterUnits="userSpaceOnUse" id="filter12">
      <feOffset dx="1" dy="1" in="SourceAlpha" result="shadowOffsetInner" />
      <feGaussianBlur stdDeviation="2.5" in="shadowOffsetInner" result="shadowGaussian" />
      <feComposite in2="shadowGaussian" operator="atop" in="SourceAlpha" result="shadowComposite" />
      <feColorMatrix type="matrix" values="0 0 0 0 0  0 0 0 0 0  0 0 0 0 0  0 0 0 0.698039215686274 0  " in="shadowComposite" />
    </filter>
    <g id="widget13">
      <path d="M 71.5 289  C 75.14 289  78 291.86  78 295.5  C 78 299.14  75.14 302  71.5 302  C 67.86 302  65 299.14  65 295.5  C 65 291.86  67.86 289  71.5 289  Z " fill-rule="nonzero" fill="#9c9c9c" stroke="none" />
      <path d="M 71.5 289.5  C 74.86 289.5  77.5 292.14  77.5 295.5  C 77.5 298.86  74.86 301.5  71.5 301.5  C 68.14 301.5  65.5 298.86  65.5 295.5  C 65.5 292.14  68.14 289.5  71.5 289.5  Z " stroke-width="1" stroke="#ffffff" fill="none" />
    </g>
  </defs>
  <g transform="matrix(1 0 0 1 -61 -285 )">
    <use xlink:href="#widget13" filter="url(#filter12)" />
    <use xlink:href="#widget13" />
  </g>
</svg>