<?xml version="1.0" encoding="utf-8"?>
<svg version="1.1" xmlns:xlink="http://www.w3.org/1999/xlink" width="63px" height="71px" xmlns="http://www.w3.org/2000/svg">
  <g transform="matrix(1 0 0 1 -93 -387 )">
    <path d="M 27.6760817307692 6.63643973214285  C 26.7421875 5.59309895833333  25.59375 5.07142857142857  24.2307692307692 5.07142857142857  C 22.8930288461539 5.07142857142857  21.7509014423077 5.56668526785715  20.8043870192308 6.55719866071428  C 19.8578725961538 7.54771205357143  19.3846153846154 8.74293154761904  20 10.1428571428571  L 20 30.4285714285714  L 19.3846153846154 45.6428571428571  L 13.6676682692308 37.6395089285714  C 12.6328125 36.2131696428571  11.2824519230769 35.5  9.61658653846154 35.5  C 8.30408653846154 35.5  7.18088942307692 36.0018601190476  6.24699519230769 37.0055803571429  C 5.31310096153846 38.0093005952381  4.84615384615385 39.1979166666667  4.84615384615385 40.5714285714286  C 4.84615384615385 41.7072172619048  5.17427884615385 42.7241443452381  5.83052884615385 43.6222098214286  L 20.3689903846154 63.9079241071429  C 21.328125 65.2550223214286  22.6153846153846 65.9285714285714  24.2307692307692 66  L 51.4146634615385 66  C 51.9699519230769 65.9285714285714  52.4684495192308 65.7502790178572  52.91015625 65.3936941964286  C 53.3518629807692 65.037109375  53.6358173076923 64.5814732142857  53.7620192307692 64.0267857142857  L 57.2451923076923 49.4464285714286  C 57.8509615384615 46.9107142857143  58.1538461538462 44.3485863095238  58.1538461538462 41.7600446428571  L 58.1538461538462 33.1623883928571  C 58.1538461538462 32.0794270833333  57.8004807692308 31.1417410714286  57.09375 30.3493303571429  C 56.3870192307692 29.5569196428571  55.5288461538462 29.1607142857143  54.5192307692308 29.1607142857143  C 53.5096153846154 29.1607142857143  52.6514423076923 29.5305059523809  51.9447115384615 30.2700892857143  C 51.2379807692308 31.0096726190476  50.8846153846154 31.9077380952381  50.8846153846154 32.9642857142857  L 49.6730769230769 32.9642857142857  L 49.6730769230769 30.5474330357143  C 49.6730769230769 29.2795758928571  49.2692307692308 28.2032180059524  48.4615384615385 27.318359375  C 47.6538461538462 26.4335007440476  46.6442307692308 25.9910714285714  45.4326923076923 25.9910714285714  C 44.2716346153846 25.9910714285714  43.2746394230769 26.4268973214286  42.4417067307692 27.2985491071429  C 41.6087740384615 28.1702008928571  41.1923076923077 29.2135416666667  41.1923076923077 30.4285714285714  L 41.1923076923077 32.9642857142857  L 39.9807692307692 32.9642857142857  L 39.9807692307692 29.3984375  C 39.9807692307692 27.9456845238095  39.5138221153846 26.6976376488095  38.5799278846154 25.654296875  C 37.6460336538462 24.6109561011905  36.4975961538462 24.0892857142857  35.1346153846154 24.0892857142857  C 33.796875 24.0892857142857  32.6547475961538 24.5845424107143  31.7082331730769 25.5750558035714  C 30.76171875 26.5655691964286  30.2884615384615 27.7607886904762  30.2884615384615 29.1607142857143  L 30.2884615384615 32.9642857142857  L 29 32.9642857142857  L 29 10.3805803571429  C 29.0769230769231 8.92782738095238  28.6099759615385 7.67978050595238  27.6760817307692 6.63643973214285  Z M 17.3780048076923 2.97154017857143  C 19.2710336538462 0.990513392857146  21.5552884615385 0  24.2307692307692 0  C 26.9314903846154 0  29.2220552884615 1.02353050595238  31.1024639423077 3.07059151785715  C 32.9828725961539 5.1176525297619  33.9230769230769 7.55431547619047  33.9230769230769 10.3805803571429  L 33.9230769230769 19.0970982142857  C 34.4783653846154 19.0442708333333  34.8822115384615 19.0178571428571  35.1346153846154 19.0178571428571  C 37.6334134615385 19.0178571428571  39.8167067307692 19.9291294642857  41.6844951923077 21.7516741071429  C 42.8707932692308 21.1969866071429  44.1201923076923 20.9196428571429  45.4326923076923 20.9196428571429  C 48.2848557692308 20.9196428571429  50.6069711538462 22.0686383928571  52.3990384615385 24.3666294642857  C 53.0805288461538 24.1817336309524  53.7872596153846 24.0892857142857  54.5192307692308 24.0892857142857  C 56.8918269230769 24.0892857142857  58.8984375 24.9807477678571  60.5390625 26.763671875  C 62.1796875 28.5465959821429  63 30.6795014880952  63 33.1623883928571  L 63 41.7600446428571  C 63 44.8240327380952  62.6466346153846 47.7955729166667  61.9399038461538 50.6746651785714  L 58.4567307692308 65.2550223214286  C 58.0528846153846 66.9454985119048  57.1947115384615 68.3256138392857  55.8822115384615 69.3953683035714  C 54.5697115384615 70.4651227678572  53.0805288461538 71  51.4146634615385 71  L 24.2307692307692 71  C 22.7163461538462 71  21.2713341346154 70.6368117559524  19.8957331730769 69.9104352678572  C 18.5201322115385 69.1840587797619  17.3780048076923 68.2001488095238  16.4693509615385 66.9587053571428  L 1.93088942307692 46.6729910714286  C 0.643629807692308 44.8768601190476  0 42.843005952381  0 40.5714285714286  C 0 37.7979910714286  0.940204326923077 35.4141555059524  2.82061298076923 33.419921875  C 4.70102163461538 31.4256882440476  6.96634615384615 30.4285714285714  9.61658653846154 30.4285714285714  C 11.4086538461538 30.4285714285714  13.0492788461538 30.8908110119048  15 31.8152901785714  L 15 10.1428571428571  C 14.5384615384615 7.34300595238095  15.4849759615385 4.95256696428572  17.3780048076923 2.97154017857143  Z M 28 55.7857142857143  L 29 55.7857142857143  L 29 40.5714285714286  L 28 40.5714285714286  L 28 55.7857142857143  Z M 37 55.7857142857143  L 38 55.7857142857143  L 38 40.5714285714286  L 37 40.5714285714286  L 37 55.7857142857143  Z M 47 55.7857142857143  L 48 55.7857142857143  L 48 40.5714285714286  L 47 40.5714285714286  L 47 55.7857142857143  Z " fill-rule="nonzero" fill="#000000" stroke="none" transform="matrix(1 0 0 1 93 387 )" />
  </g>
</svg>