<?xml version="1.0" encoding="utf-8"?>
<svg version="1.1" xmlns:xlink="http://www.w3.org/1999/xlink" width="100px" height="40px" xmlns="http://www.w3.org/2000/svg">
  <defs>
    <mask fill="white" id="clip16">
      <path d="M 86.3861386138614 0.169491525423732  L 12.1287128712871 0.169491525423732  C 12.1287128712871 0.169491525423732  0.766014791910351 8.88863143551767  0.742574257425744 20  C 0.718960100661477 31.1936696375067  12.1287128712871 40  12.1287128712871 40  L 86.3861386138614 40  C 86.3861386138614 40  99.0353052030451 31.1924495293298  99.009900990099 20  C 98.9846780590572 8.88741866296518  86.3861386138614 0.169491525423732  86.3861386138614 0.169491525423732  Z " fill-rule="evenodd" />
    </mask>
  </defs>
  <g transform="matrix(1 0 0 1 -145 -390 )">
    <path d="M 86.3861386138614 0.169491525423732  L 12.1287128712871 0.169491525423732  C 12.1287128712871 0.169491525423732  0.766014791910351 8.88863143551767  0.742574257425744 20  C 0.718960100661477 31.1936696375067  12.1287128712871 40  12.1287128712871 40  L 86.3861386138614 40  C 86.3861386138614 40  99.0353052030451 31.1924495293298  99.009900990099 20  C 98.9846780590572 8.88741866296518  86.3861386138614 0.169491525423732  86.3861386138614 0.169491525423732  Z " fill-rule="nonzero" fill="#ffffff" stroke="none" transform="matrix(1 0 0 1 145 390 )" />
    <path d="M 86.3861386138614 0.169491525423732  L 12.1287128712871 0.169491525423732  C 12.1287128712871 0.169491525423732  0.766014791910351 8.88863143551767  0.742574257425744 20  C 0.718960100661477 31.1936696375067  12.1287128712871 40  12.1287128712871 40  L 86.3861386138614 40  C 86.3861386138614 40  99.0353052030451 31.1924495293298  99.009900990099 20  C 98.9846780590572 8.88741866296518  86.3861386138614 0.169491525423732  86.3861386138614 0.169491525423732  Z " stroke-width="2" stroke="#797979" fill="none" transform="matrix(1 0 0 1 145 390 )" mask="url(#clip16)" />
  </g>
</svg>