<?xml version="1.0" encoding="utf-8"?>
<svg version="1.1" xmlns:xlink="http://www.w3.org/1999/xlink" width="50px" height="50px" xmlns="http://www.w3.org/2000/svg">
  <defs>
    <filter x="201px" y="386px" width="50px" height="50px" filterUnits="userSpaceOnUse" id="filter17">
      <feOffset dx="1" dy="1" in="SourceAlpha" result="shadowOffsetInner" />
      <feGaussianBlur stdDeviation="2.5" in="shadowOffsetInner" result="shadowGaussian" />
      <feComposite in2="shadowGaussian" operator="atop" in="SourceAlpha" result="shadowComposite" />
      <feColorMatrix type="matrix" values="0 0 0 0 0  0 0 0 0 0  0 0 0 0 0  0 0 0 0.698039215686274 0  " in="shadowComposite" />
    </filter>
    <g id="widget18">
      <path d="M 225 390  C 236.2 390  245 398.8  245 410  C 245 421.2  236.2 430  225 430  C 213.8 430  205 421.2  205 410  C 205 398.8  213.8 390  225 390  Z " fill-rule="nonzero" fill="#009dd9" stroke="none" />
      <path d="M 225 390.5  C 235.92 390.5  244.5 399.08  244.5 410  C 244.5 420.92  235.92 429.5  225 429.5  C 214.08 429.5  205.5 420.92  205.5 410  C 205.5 399.08  214.08 390.5  225 390.5  Z " stroke-width="1" stroke="#ffffff" fill="none" />
    </g>
  </defs>
  <g transform="matrix(1 0 0 1 -201 -386 )">
    <use xlink:href="#widget18" filter="url(#filter17)" />
    <use xlink:href="#widget18" />
  </g>
</svg>